<svg width="848" height="848" xmlns="http://www.w3.org/2000/svg" version="1.1"><g transform="translate(424,424)"><g display="none"><path d="M0,244.79651413640133A244.79651413640133,244.79651413640133 0 1,1 0,-244.79651413640133A244.79651413640133,244.79651413640133 0 1,1 0,244.79651413640133Z" style="stroke: rgb(255, 255, 255); fill: rgb(191, 105, 105); fill-rule: evenodd;"></path><text transform="rotate(90)" x="0" dx="6" dy=".35em" style="font-size: 11px; font-family: Arial,Helvetica;"></text><title>undefined: none</title></g><g><path d="M2.1198302396175426e-14,-346.1945503133558A346.1945503133558,346.1945503133558 0 1,1 -181.06271014842153,295.07111288700446L-128.0306701659632,208.64678485466217A244.79651413640133,244.79651413640133 0 1,0 1.4989463373978684e-14,-244.79651413640133Z" style="stroke: rgb(255, 255, 255); fill: rgb(191, 105, 105); fill-rule: evenodd;"></path><text transform="rotate(15.767138193688787)" x="244.79651413640133" dx="6" dy=".35em" style="font-size: 11px; font-family: Arial,Helvetica;">Masculino</text><title>Masculino: none</title></g><g><path d="M2.596251214192389e-14,-424A424,424 0 0,1 278.90364122810894,-319.3567893590213L227.72386947104408,-260.7537266076969A346.1945503133558,346.1945503133558 0 0,0 2.1198302396175426e-14,-346.1945503133558Z" style="stroke: rgb(255, 255, 255); fill: rgb(191, 105, 105); fill-rule: evenodd;"></path><text transform="rotate(-69.4341675734494)" x="346.1945503133558" dx="6" dy=".35em" style="font-size: 11px; font-family: Arial,Helvetica;">Chile Vamos</text><title>Chile Vamos: 105</title></g><g><path d="M278.90364122810894,-319.3567893590213A424,424 0 0,1 418.8813949267033,-65.68391724204047L342.01522677188973,-53.630693850065754A346.1945503133558,346.1945503133558 0 0,0 227.72386947104408,-260.7537266076969Z" style="stroke: rgb(255, 255, 255); fill: rgb(191, 156, 105); fill-rule: evenodd;"></path><text transform="rotate(-28.89009793253536)" x="346.1945503133558" dx="6" dy=".35em" style="font-size: 11px; font-family: Arial,Helvetica;">La fuerza de la Mayoria</text><title>La fuerza de la Mayoria: 102</title></g><g><path d="M418.8813949267033,-65.68391724204047A424,424 0 0,1 419.9428524447952,58.51496116831126L342.8819032062118,47.7772657270448A346.1945503133558,346.1945503133558 0 0,0 342.01522677188973,-53.630693850065754Z" style="stroke: rgb(255, 255, 255); fill: rgb(174, 191, 105); fill-rule: evenodd;"></path><text transform="rotate(-0.4896626768226285)" x="346.1945503133558" dx="6" dy=".35em" style="font-size: 11px; font-family: Arial,Helvetica;">Sumemos</text><title>Sumemos: 43</title></g><g><path d="M419.9428524447952,58.51496116831126A424,424 0 0,1 396.20917271498115,150.97778464565656L323.50343485398497,123.2728449592211A346.1945503133558,346.1945503133558 0 0,0 342.8819032062118,47.7772657270448Z" style="stroke: rgb(255, 255, 255); fill: rgb(122, 191, 105); fill-rule: evenodd;"></path><text transform="rotate(14.396082698585413)" x="346.1945503133558" dx="6" dy=".35em" style="font-size: 11px; font-family: Arial,Helvetica;">Union Patriotica</text><title>Union Patriotica: 33</title></g><g><path d="M396.20917271498115,150.97778464565656A424,424 0 0,1 290.7125467467686,308.64577619661L237.3658004515283,252.00822098231617A346.1945503133558,346.1945503133558 0 0,0 323.50343485398497,123.2728449592211Z" style="stroke: rgb(255, 255, 255); fill: rgb(105, 191, 139); fill-rule: evenodd;"></path><text transform="rotate(33.786724700761695)" x="346.1945503133558" dx="6" dy=".35em" style="font-size: 11px; font-family: Arial,Helvetica;">Convergencia Democratica</text><title>Convergencia Democratica: 66</title></g><g><path d="M290.7125467467686,308.64577619661A424,424 0 0,1 286.46508991732065,312.5919900743802L233.8977664726459,255.23029112112508A346.1945503133558,346.1945503133558 0 0,0 237.3658004515283,252.00822098231617Z" style="stroke: rgb(255, 255, 255); fill: rgb(105, 191, 191); fill-rule: evenodd;"></path><text transform="rotate(47.10554951033733)" x="346.1945503133558" dx="6" dy=".35em" style="font-size: 11px; font-family: Arial,Helvetica;">Trabajadores revolucionarios</text><title>Trabajadores revolucionarios: 2</title></g><g><path d="M286.46508991732065,312.5919900743802A424,424 0 0,1 264.44061223209354,331.43198789844587L215.91485574593895,270.6130849291605A346.1945503133558,346.1945503133558 0 0,0 233.8977664726459,255.23029112112508Z" style="stroke: rgb(255, 255, 255); fill: rgb(105, 139, 191); fill-rule: evenodd;"></path><text transform="rotate(49.45593035908596)" x="346.1945503133558" dx="6" dy=".35em" style="font-size: 11px; font-family: Arial,Helvetica;">Independiente</text><title>Independiente: 10</title></g><g><path d="M264.44061223209354,331.43198789844587A424,424 0 0,1 82.09625892016592,415.97620637641415L67.0313147152728,339.6431502536283A346.1945503133558,346.1945503133558 0 0,0 215.91485574593895,270.6130849291605Z" style="stroke: rgb(255, 255, 255); fill: rgb(122, 105, 191); fill-rule: evenodd;"></path><text transform="rotate(65.1251360174102)" x="346.1945503133558" dx="6" dy=".35em" style="font-size: 11px; font-family: Arial,Helvetica;">Por Todo Chile</text><title>Por Todo Chile: 70</title></g><g><path d="M82.09625892016592,415.97620637641415A424,424 0 0,1 27.51999927516548,423.10595557129056L22.469985315306108,345.46456609411706A346.1945503133558,346.1945503133558 0 0,0 67.0313147152728,339.6431502536283Z" style="stroke: rgb(255, 255, 255); fill: rgb(174, 105, 191); fill-rule: evenodd;"></path><text transform="rotate(82.55712731229593)" x="346.1945503133558" dx="6" dy=".35em" style="font-size: 11px; font-family: Arial,Helvetica;">Coalicion Regionalista Verde</text><title>Coalicion Regionalista Verde: 19</title></g><g><path d="M27.51999927516548,423.10595557129056A424,424 0 0,1 -221.75562565454092,361.3868322041675L-181.0627101484214,295.0711128870046A346.1945503133558,346.1945503133558 0 0,0 22.469985315306108,345.46456609411706Z" style="stroke: rgb(255, 255, 255); fill: rgb(191, 105, 156); fill-rule: evenodd;"></path><text transform="rotate(103.90642002176274)" x="346.1945503133558" dx="6" dy=".35em" style="font-size: 11px; font-family: Arial,Helvetica;">Frente Amplio</text><title>Frente Amplio: 90</title></g><g><path d="M-181.06271014842153,295.07111288700446A346.1945503133558,346.1945503133558 0 0,1 -6.359490718852627e-14,-346.1945503133558L-4.496839012193605e-14,-244.79651413640133A244.79651413640133,244.79651413640133 0 0,0 -128.0306701659632,208.64678485466217Z" style="stroke: rgb(255, 255, 255); fill: rgb(191, 105, 105); fill-rule: evenodd;"></path><text transform="rotate(195.7671381936888)" x="244.79651413640133" dx="6" dy=".35em" style="font-size: 11px; font-family: Arial,Helvetica;">Femenino</text><title>Femenino: none</title></g><g><path d="M-221.75562565454112,361.3868322041674A424,424 0 0,1 -367.676963856035,211.16261565345303L-300.20698387433964,172.4135537007999A346.1945503133558,346.1945503133558 0 0,0 -181.06271014842153,295.07111288700446Z" style="stroke: rgb(255, 255, 255); fill: rgb(191, 105, 105); fill-rule: evenodd;"></path><text transform="rotate(135.83242655059846)" x="346.1945503133558" dx="6" dy=".35em" style="font-size: 11px; font-family: Arial,Helvetica;">Chile Vamos</text><title>Chile Vamos: 73</title></g><g><path d="M-367.676963856035,211.16261565345303A424,424 0 0,1 -423.72689065995445,15.215851328368833L-345.9715574709892,12.42369058551775A346.1945503133558,346.1945503133558 0 0,0 -300.20698387433964,172.4135537007999Z" style="stroke: rgb(255, 255, 255); fill: rgb(191, 156, 105); fill-rule: evenodd;"></path><text transform="rotate(164.03699673558214)" x="346.1945503133558" dx="6" dy=".35em" style="font-size: 11px; font-family: Arial,Helvetica;">La fuerza de la Mayoria</text><title>La fuerza de la Mayoria: 71</title></g><g><path d="M-423.72689065995445,15.215851328368833A424,424 0 0,1 -417.94410353060886,-71.40536621288159L-341.24993155164566,-58.30223737270998A346.1945503133558,346.1945503133558 0 0,0 -345.9715574709892,12.42369058551775Z" style="stroke: rgb(255, 255, 255); fill: rgb(174, 191, 105); fill-rule: evenodd;"></path><text transform="rotate(183.81936887921657)" x="346.1945503133558" dx="6" dy=".35em" style="font-size: 11px; font-family: Arial,Helvetica;">Sumemos</text><title>Sumemos: 30</title></g><g><path d="M-417.94410353060886,-71.40536621288159A424,424 0 0,1 -402.525292135219,-133.22683360140556L-328.66052476534037,-108.77925412337471A346.1945503133558,346.1945503133558 0 0,0 -341.24993155164566,-58.30223737270998Z" style="stroke: rgb(255, 255, 255); fill: rgb(122, 191, 105); fill-rule: evenodd;"></path><text transform="rotate(194.00435255712736)" x="346.1945503133558" dx="6" dy=".35em" style="font-size: 11px; font-family: Arial,Helvetica;">Union Patriotica</text><title>Union Patriotica: 22</title></g><g><path d="M-402.525292135219,-133.22683360140556A424,424 0 0,1 -338.1022267093937,-255.8571560346706L-276.0593121122708,-208.90649310820024A346.1945503133558,346.1945503133558 0 0,0 -328.66052476534037,-108.77925412337471Z" style="stroke: rgb(255, 255, 255); fill: rgb(105, 191, 139); fill-rule: evenodd;"></path><text transform="rotate(207.71490750816108)" x="346.1945503133558" dx="6" dy=".35em" style="font-size: 11px; font-family: Arial,Helvetica;">Convergencia Democratica</text><title>Convergencia Democratica: 48</title></g><g><path d="M-338.1022267093937,-255.8571560346706A424,424 0 0,1 -334.57214661902225,-260.45628943594255L-273.1770137880815,-212.66166980556932A346.1945503133558,346.1945503133558 0 0,0 -276.0593121122708,-208.90649310820024Z" style="stroke: rgb(255, 255, 255); fill: rgb(105, 191, 191); fill-rule: evenodd;"></path><text transform="rotate(217.50816104461373)" x="346.1945503133558" dx="6" dy=".35em" style="font-size: 11px; font-family: Arial,Helvetica;">Trabajadores revolucionarios</text><title>Trabajadores revolucionarios: 2</title></g><g><path d="M-334.57214661902225,-260.45628943594255A424,424 0 0,1 -332.7836062147901,-262.7376475396693L-271.71667666317484,-214.52439089713394A346.1945503133558,346.1945503133558 0 0,0 -273.1770137880815,-212.66166980556932Z" style="stroke: rgb(255, 255, 255); fill: rgb(105, 139, 191); fill-rule: evenodd;"></path><text transform="rotate(218.0957562568009)" x="346.1945503133558" dx="6" dy=".35em" style="font-size: 11px; font-family: Arial,Helvetica;">Independiente</text><title>Independiente: 1</title></g><g><path d="M-332.7836062147901,-262.7376475396693A424,424 0 0,1 -237.59156438202442,-351.17837139337377L-193.9926999751926,-286.7359395384568A346.1945503133558,346.1945503133558 0 0,0 -271.71667666317484,-214.52439089713394Z" style="stroke: rgb(255, 255, 255); fill: rgb(122, 105, 191); fill-rule: evenodd;"></path><text transform="rotate(227.10554951033737)" x="346.1945503133558" dx="6" dy=".35em" style="font-size: 11px; font-family: Arial,Helvetica;">Por Todo Chile</text><title>Por Todo Chile: 45</title></g><g><path d="M-237.59156438202442,-351.17837139337377A424,424 0 0,1 -187.50332161159884,-380.28739708885615L-153.09582100846225,-310.5033594929555A346.1945503133558,346.1945503133558 0 0,0 -193.9926999751926,-286.7359395384568Z" style="stroke: rgb(255, 255, 255); fill: rgb(174, 105, 191); fill-rule: evenodd;"></path><text transform="rotate(239.83677910772582)" x="346.1945503133558" dx="6" dy=".35em" style="font-size: 11px; font-family: Arial,Helvetica;">Coalicion Regionalista Verde</text><title>Coalicion Regionalista Verde: 20</title></g><g><path d="M-187.50332161159884,-380.28739708885615A424,424 0 0,1 -4.5447518637862475e-13,-424L-3.7107743579463813e-13,-346.1945503133558A346.1945503133558,346.1945503133558 0 0,0 -153.09582100846225,-310.5033594929555Z" style="stroke: rgb(255, 255, 255); fill: rgb(191, 105, 156); fill-rule: evenodd;"></path><text transform="rotate(256.8770402611534)" x="346.1945503133558" dx="6" dy=".35em" style="font-size: 11px; font-family: Arial,Helvetica;">Frente Amplio</text><title>Frente Amplio: 67</title></g></g></svg>
