<svg width="848" height="848" xmlns="http://www.w3.org/2000/svg" version="1.1"><g transform="translate(424,424)"><g display="none"><path d="M0,244.79651413640133A244.79651413640133,244.79651413640133 0 1,1 0,-244.79651413640133A244.79651413640133,244.79651413640133 0 1,1 0,244.79651413640133Z" style="stroke: rgb(255, 255, 255); fill: rgb(191, 105, 105); fill-rule: evenodd;"></path><text transform="rotate(90)" x="0" dx="6" dy=".35em" style="font-size: 11px; font-family: Arial,Helvetica;"></text><title>undefined: none</title></g><g><path d="M2.1198302396175426e-14,-346.1945503133558A346.1945503133558,346.1945503133558 0 1,1 -185.80129753381158,292.1105004983879L-131.3813574394175,206.55331575820648A244.79651413640133,244.79651413640133 0 1,0 1.4989463373978684e-14,-244.79651413640133Z" style="stroke: rgb(255, 255, 255); fill: rgb(191, 105, 105); fill-rule: evenodd;"></path><text transform="rotate(16.229508196721298)" x="244.79651413640133" dx="6" dy=".35em" style="font-size: 11px; font-family: Arial,Helvetica;">Masculino</text><title>Masculino: none</title></g><g><path d="M2.596251214192389e-14,-424A424,424 0 0,1 311.1673953672524,-288.0118956924523L254.06711441354753,-235.16072809940016A346.1945503133558,346.1945503133558 0 0,0 2.1198302396175426e-14,-346.1945503133558Z" style="stroke: rgb(255, 255, 255); fill: rgb(191, 105, 105); fill-rule: evenodd;"></path><text transform="rotate(-66.39344262295083)" x="346.1945503133558" dx="6" dy=".35em" style="font-size: 11px; font-family: Arial,Helvetica;">La fuerza de la Mayoria</text><title>La fuerza de la Mayoria: 16</title></g><g><path d="M311.1673953672524,-288.0118956924523A424,424 0 0,1 339.131839769641,-254.4908549525082L276.89998765564127,-207.79091294609677A346.1945503133558,346.1945503133558 0 0,0 254.06711441354753,-235.16072809940016Z" style="stroke: rgb(255, 255, 255); fill: rgb(191, 162, 105); fill-rule: evenodd;"></path><text transform="rotate(-39.8360655737705)" x="346.1945503133558" dx="6" dy=".35em" style="font-size: 11px; font-family: Arial,Helvetica;">Union Patriotica</text><title>Union Patriotica: 2</title></g><g><path d="M339.131839769641,-254.4908549525082A424,424 0 0,1 384.0177595461199,-179.73970166098093L313.5491876849325,-146.75685186316045A346.1945503133558,346.1945503133558 0 0,0 276.89998765564127,-207.79091294609677Z" style="stroke: rgb(255, 255, 255); fill: rgb(162, 191, 105); fill-rule: evenodd;"></path><text transform="rotate(-30.98360655737706)" x="346.1945503133558" dx="6" dy=".35em" style="font-size: 11px; font-family: Arial,Helvetica;">Independiente</text><title>Independiente: 4</title></g><g><path d="M384.0177595461199,-179.73970166098093A424,424 0 0,1 407.10354643675913,-118.5019091770824L332.3986537491656,-96.7564036764957A346.1945503133558,346.1945503133558 0 0,0 313.5491876849325,-146.75685186316045Z" style="stroke: rgb(255, 255, 255); fill: rgb(105, 191, 105); fill-rule: evenodd;"></path><text transform="rotate(-20.65573770491804)" x="346.1945503133558" dx="6" dy=".35em" style="font-size: 11px; font-family: Arial,Helvetica;">Por Todo Chile</text><title>Por Todo Chile: 3</title></g><g><path d="M407.10354643675913,-118.5019091770824A424,424 0 0,1 412.6640944489622,-97.38760266388128L336.93882218921385,-79.51664459980697A346.1945503133558,346.1945503133558 0 0,0 332.3986537491656,-96.7564036764957Z" style="stroke: rgb(255, 255, 255); fill: rgb(105, 191, 162); fill-rule: evenodd;"></path><text transform="rotate(-14.754098360655734)" x="346.1945503133558" dx="6" dy=".35em" style="font-size: 11px; font-family: Arial,Helvetica;">Coalicion Regionalista Verde</text><title>Coalicion Regionalista Verde: 1</title></g><g><path d="M412.6640944489622,-97.38760266388128A424,424 0 0,1 407.10354643675913,118.5019091770824L332.3986537491656,96.7564036764957A346.1945503133558,346.1945503133558 0 0,0 336.93882218921385,-79.51664459980697Z" style="stroke: rgb(255, 255, 255); fill: rgb(105, 162, 191); fill-rule: evenodd;"></path><text transform="rotate(1.475409836065576)" x="346.1945503133558" dx="6" dy=".35em" style="font-size: 11px; font-family: Arial,Helvetica;">Frente Amplio</text><title>Frente Amplio: 10</title></g><g><path d="M407.10354643675913,118.5019091770824A424,424 0 0,1 339.13183976964103,254.49085495250807L276.8999876556413,207.79091294609668A346.1945503133558,346.1945503133558 0 0,0 332.3986537491656,96.7564036764957Z" style="stroke: rgb(255, 255, 255); fill: rgb(105, 105, 191); fill-rule: evenodd;"></path><text transform="rotate(26.557377049180317)" x="346.1945503133558" dx="6" dy=".35em" style="font-size: 11px; font-family: Arial,Helvetica;">Convergencia Democratica</text><title>Convergencia Democratica: 7</title></g><g><path d="M339.13183976964103,254.49085495250807A424,424 0 0,1 128.9446889068676,403.9174014606342L105.28289762124669,329.7971772698195A346.1945503133558,346.1945503133558 0 0,0 276.8999876556413,207.79091294609668Z" style="stroke: rgb(255, 255, 255); fill: rgb(162, 105, 191); fill-rule: evenodd;"></path><text transform="rotate(54.59016393442623)" x="346.1945503133558" dx="6" dy=".35em" style="font-size: 11px; font-family: Arial,Helvetica;">Sumemos</text><title>Sumemos: 12</title></g><g><path d="M128.9446889068676,403.9174014606342A424,424 0 0,1 -227.55918625243856,357.76083736503074L-185.8012975338117,292.1105004983878A346.1945503133558,346.1945503133558 0 0,0 105.28289762124669,329.7971772698195Z" style="stroke: rgb(255, 255, 255); fill: rgb(191, 105, 162); fill-rule: evenodd;"></path><text transform="rotate(97.37704918032787)" x="346.1945503133558" dx="6" dy=".35em" style="font-size: 11px; font-family: Arial,Helvetica;">Chile Vamos</text><title>Chile Vamos: 17</title></g><g><path d="M-185.80129753381158,292.1105004983879A346.1945503133558,346.1945503133558 0 0,1 -6.359490718852627e-14,-346.1945503133558L-4.496839012193605e-14,-244.79651413640133A244.79651413640133,244.79651413640133 0 0,0 -131.3813574394175,206.55331575820648Z" style="stroke: rgb(255, 255, 255); fill: rgb(191, 105, 105); fill-rule: evenodd;"></path><text transform="rotate(196.22950819672127)" x="244.79651413640133" dx="6" dy=".35em" style="font-size: 11px; font-family: Arial,Helvetica;">Femenino</text><title>Femenino: none</title></g><g><path d="M-227.55918625243842,357.76083736503085A424,424 0 0,1 -374.25581049003193,199.27013904358395L-305.57858965744606,162.70338721007886A346.1945503133558,346.1945503133558 0 0,0 -185.80129753381158,292.1105004983879Z" style="stroke: rgb(255, 255, 255); fill: rgb(191, 105, 105); fill-rule: evenodd;"></path><text transform="rotate(137.21311475409834)" x="346.1945503133558" dx="6" dy=".35em" style="font-size: 11px; font-family: Arial,Helvetica;">La fuerza de la Mayoria</text><title>La fuerza de la Mayoria: 10</title></g><g><path d="M-374.25581049003193,199.27013904358395A424,424 0 0,1 -384.01775954611975,179.73970166098132L-313.54918768493235,146.75685186316076A346.1945503133558,346.1945503133558 0 0,0 -305.57858965744606,162.70338721007886Z" style="stroke: rgb(255, 255, 255); fill: rgb(191, 162, 105); fill-rule: evenodd;"></path><text transform="rotate(153.44262295081967)" x="346.1945503133558" dx="6" dy=".35em" style="font-size: 11px; font-family: Arial,Helvetica;">Union Patriotica</text><title>Union Patriotica: 1</title></g><g><path d="M-384.01775954611975,179.73970166098132A424,424 0 0,1 -412.6640944489621,97.38760266388161L-336.93882218921374,79.51664459980724A346.1945503133558,346.1945503133558 0 0,0 -313.54918768493235,146.75685186316076Z" style="stroke: rgb(255, 255, 255); fill: rgb(105, 191, 105); fill-rule: evenodd;"></path><text transform="rotate(160.8196721311475)" x="346.1945503133558" dx="6" dy=".35em" style="font-size: 11px; font-family: Arial,Helvetica;">Por Todo Chile</text><title>Por Todo Chile: 4</title></g><g><path d="M-412.6640944489621,97.38760266388161A424,424 0 0,1 -407.10354643675925,-118.5019091770821L-332.39865374916565,-96.75640367649544A346.1945503133558,346.1945503133558 0 0,0 -336.93882218921374,79.51664459980724Z" style="stroke: rgb(255, 255, 255); fill: rgb(105, 162, 191); fill-rule: evenodd;"></path><text transform="rotate(181.47540983606555)" x="346.1945503133558" dx="6" dy=".35em" style="font-size: 11px; font-family: Arial,Helvetica;">Frente Amplio</text><title>Frente Amplio: 10</title></g><g><path d="M-407.10354643675925,-118.5019091770821A424,424 0 0,1 -363.50140230436506,-218.27214784016792L-296.7976521439479,-178.21846242324824A346.1945503133558,346.1945503133558 0 0,0 -332.39865374916565,-96.75640367649544Z" style="stroke: rgb(255, 255, 255); fill: rgb(105, 105, 191); fill-rule: evenodd;"></path><text transform="rotate(203.6065573770491)" x="346.1945503133558" dx="6" dy=".35em" style="font-size: 11px; font-family: Arial,Helvetica;">Convergencia Democratica</text><title>Convergencia Democratica: 5</title></g><g><path d="M-363.50140230436506,-218.27214784016792A424,424 0 0,1 -245.67454563873537,-345.57201510712775L-200.59242653500002,-282.1583687992743A346.1945503133558,346.1945503133558 0 0,0 -296.7976521439479,-178.21846242324824Z" style="stroke: rgb(255, 255, 255); fill: rgb(162, 105, 191); fill-rule: evenodd;"></path><text transform="rotate(222.78688524590163)" x="346.1945503133558" dx="6" dy=".35em" style="font-size: 11px; font-family: Arial,Helvetica;">Sumemos</text><title>Sumemos: 8</title></g><g><path d="M-245.67454563873537,-345.57201510712775A424,424 0 0,1 -4.5447518637862475e-13,-424L-3.7107743579463813e-13,-346.1945503133558A346.1945503133558,346.1945503133558 0 0,0 -200.59242653500002,-282.1583687992743Z" style="stroke: rgb(255, 255, 255); fill: rgb(191, 105, 162); fill-rule: evenodd;"></path><text transform="rotate(252.29508196721306)" x="346.1945503133558" dx="6" dy=".35em" style="font-size: 11px; font-family: Arial,Helvetica;">Chile Vamos</text><title>Chile Vamos: 12</title></g></g></svg>